HIERARCHY
ROOT Pelvis
{
	OFFSET 0.000000 0.000000 0.000000
	CHANNELS 6 Xposition Yposition Zposition Xrotation Yrotation Zrotation
	JOINT LeftUpLeg_virtual
	{
		OFFSET 0.000000 0.000000 0.000000
		CHANNELS 3 Xrotation Yrotation Zrotation
		JOINT LeftUpLeg
		{
			OFFSET 18.735201 -5.666702 -4.541200
			CHANNELS 3 Xrotation Yrotation Zrotation
			JOINT LeftLeg
			{
				OFFSET -0.021200 -31.938179 0.493100
				CHANNELS 3 Xrotation Yrotation Zrotation
				JOINT LeftFoot
				{
					OFFSET 0.021200 -31.938179 -4.336299
					CHANNELS 3 Xrotation Yrotation Zrotation
					JOINT LeftToeBase
					{
						OFFSET 0.943001 -26.722000 15.023500
						CHANNELS 3 Xrotation Yrotation Zrotation
						End Site
						{
							OFFSET 0 0 0
						}
					}
				}
			}
		}
	}
	JOINT RightUpLeg_virtual
	{
		OFFSET 0.000000 0.000000 0.000000
		CHANNELS 3 Xrotation Yrotation Zrotation
		JOINT RightUpLeg
		{
			OFFSET -18.735201 -5.666702 -4.541200
			CHANNELS 3 Xrotation Yrotation Zrotation
			JOINT RightLeg
			{
				OFFSET 0.018946 -31.938133 0.493100
				CHANNELS 3 Xrotation Yrotation Zrotation
				JOINT RightFoot
				{
					OFFSET -0.018946 -31.938126 -4.336299
					CHANNELS 3 Xrotation Yrotation Zrotation
					JOINT RightToeBase
					{
						OFFSET -0.943001 -26.722004 15.023500
						CHANNELS 3 Xrotation Yrotation Zrotation
						End Site
						{
							OFFSET 0 0 0
						}
					}
				}
			}
		}
	}
	JOINT Hips_virtual
	{
		OFFSET 0.000000 0.000000 0.000000
		CHANNELS 3 Xrotation Yrotation Zrotation
		JOINT Hips
		{
			OFFSET -0.000000 -0.000000 -0.000000
			CHANNELS 3 Xrotation Yrotation Zrotation
			JOINT Spine
			{
				OFFSET 0.000000 10.199997 -0.299500
				CHANNELS 3 Xrotation Yrotation Zrotation
				JOINT Spine1
				{
					OFFSET 0.000000 11.900002 -1.516600
					CHANNELS 3 Xrotation Yrotation Zrotation
					JOINT Spine2
					{
						OFFSET 0.000000 13.600006 -2.842500
						CHANNELS 3 Xrotation Yrotation Zrotation
						JOINT Neck_virtual
						{
							OFFSET 0.000000 0.000000 0.000000
							CHANNELS 3 Xrotation Yrotation Zrotation
							JOINT Neck
							{
								OFFSET 0.000000 9.624100 -2.890100
								CHANNELS 3 Xrotation Yrotation Zrotation
								JOINT Head
								{
									OFFSET 0.000000 14.068802 -1.351900
									CHANNELS 3 Xrotation Yrotation Zrotation
									End Site
									{
										OFFSET 0 0 0
									}
								}
							}
						}
						JOINT LeftShoulder_virtual
						{
							OFFSET 0.000000 0.000000 0.000000
							CHANNELS 3 Xrotation Yrotation Zrotation
							JOINT LeftShoulder
							{
								OFFSET 15.263000 10.923401 -0.547700
								CHANNELS 3 Xrotation Yrotation Zrotation
								JOINT LeftArm
								{
									OFFSET 25.438599 -2.830597 -13.032500
									CHANNELS 3 Xrotation Yrotation Zrotation
									JOINT LeftForeArm
									{
										OFFSET 29.960503 0.000000 0.000000
										CHANNELS 3 Xrotation Yrotation Zrotation
										JOINT LeftHand
										{
											OFFSET 27.849251 0.000000 0.000000
											CHANNELS 3 Xrotation Yrotation Zrotation
											End Site
											{
												OFFSET 0 0 0
											}
										}
									}
								}
							}
						}
						JOINT RightShoulder_virtual
						{
							OFFSET 0.000000 0.000000 0.000000
							CHANNELS 3 Xrotation Yrotation Zrotation
							JOINT RightShoulder
							{
								OFFSET -15.263000 10.923401 -0.547700
								CHANNELS 3 Xrotation Yrotation Zrotation
								JOINT RightArm
								{
									OFFSET -25.438599 -2.830597 -13.032500
									CHANNELS 3 Xrotation Yrotation Zrotation
									JOINT RightForeArm
									{
										OFFSET -29.960503 0.000000 0.000000
										CHANNELS 3 Xrotation Yrotation Zrotation
										JOINT RightHand
										{
											OFFSET -27.849251 0.000000 0.000000
											CHANNELS 3 Xrotation Yrotation Zrotation
											End Site
											{
												OFFSET 0 0 0
											}
										}
									}
								}
							}
						}
					}
				}
			}
		}
	}
}
MOTION
Frames: 9
Frame Time: 0.03333333
1.950297 87.487976 4.768108 0.000000 0.000000 0.000000 26.295815 11.563939 1.874799 -42.185782 8.373096 16.095383 40.757334 9.024214 -5.307007 7.117715 21.909833 -19.924666 0.000000 0.000000 0.000000 26.295815 11.563939 1.874799 -71.255361 -10.414478 -12.401097 45.455513 3.558255 -5.305578 -0.882606 -9.892214 0.360357 0.000000 0.000000 0.000000 26.295815 11.563939 1.874799 0.000001 0.000001 -0.000000 11.259505 -1.190097 0.894613 9.276079 2.486270 -1.078452 0.000000 0.000000 0.000000 9.399705 1.253081 -3.812948 -3.551321 1.241332 -0.087372 0.000000 0.000000 0.000000 9.399705 1.253081 -3.812948 0.803781 0.857152 -9.303933 -29.535883 -3.682378 -62.075109 -0.000001 -41.672798 0.000017 0.000000 0.000000 0.000000 9.399705 1.253081 -3.812948 5.720861 24.427845 1.421184 -24.663786 -14.041425 65.136427 -0.000003 37.034266 0.000024 0.000000 0.000000 0.000000 
1.849276 88.563942 6.170113 0.000000 0.000000 0.000000 26.220147 11.900125 2.110236 -42.107447 8.823443 14.742968 38.087491 8.998615 -5.281237 6.731388 23.472398 -20.511041 0.000000 0.000000 0.000000 26.220147 11.900125 2.110236 -68.474538 -10.684346 -12.292309 43.346573 3.729270 -5.416639 -1.483340 -10.295404 0.588134 0.000000 0.000000 0.000000 26.220147 11.900125 2.110236 0.000001 -0.000001 0.000000 10.883513 -0.723807 0.938610 9.270634 2.730512 -1.057022 0.000000 0.000000 0.000000 9.403899 1.489580 -3.792867 -3.636016 1.205784 -0.154580 0.000000 0.000000 0.000000 9.403899 1.489580 -3.792867 0.819702 0.837069 -9.277597 -28.935717 -1.468108 -61.169774 -0.000000 -41.886644 -0.000005 0.000000 0.000000 0.000000 9.403899 1.489580 -3.792867 5.725877 24.411899 1.390778 -24.662560 -15.375729 64.479964 -0.000007 37.223192 -0.000012 0.000000 0.000000 0.000000 
2.003244 89.498726 7.968374 0.000000 0.000000 0.000000 26.036002 12.444133 2.237025 -41.741687 9.103818 13.709469 35.053695 8.639264 -5.228619 8.129348 24.903607 -21.863929 0.000000 0.000000 0.000000 26.036002 12.444133 2.237025 -65.601057 -11.005697 -12.549741 41.987574 3.619654 -5.519767 -2.820773 -10.480798 1.052083 0.000000 0.000000 0.000000 26.036002 12.444133 2.237025 0.000000 -0.000001 0.000000 10.468627 -0.094141 1.101619 9.248250 2.964295 -0.996380 0.000000 0.000000 0.000000 9.387522 1.751382 -3.651125 -3.710386 1.131281 -0.243060 0.000000 0.000000 0.000000 9.387522 1.751382 -3.651125 0.864113 0.779458 -9.200430 -27.914283 0.938269 -60.038497 -0.000001 -42.148865 -0.000006 0.000000 0.000000 0.000000 9.387522 1.751382 -3.651125 5.738800 24.365547 1.303479 -24.740736 -16.700531 63.463263 -0.000002 37.406515 0.000013 0.000000 0.000000 0.000000 
2.183213 90.375061 9.771458 0.000000 0.000000 0.000000 25.754418 13.209658 2.301141 -41.497265 9.298223 12.713295 31.976815 7.833654 -5.174813 9.969372 26.995189 -23.110893 0.000000 0.000000 0.000000 25.754418 13.209658 2.301141 -62.624475 -11.493717 -12.909151 40.679872 3.727746 -5.623702 -4.219956 -10.981045 1.502844 0.000000 0.000000 0.000000 25.754418 13.209658 2.301141 -0.000001 0.000001 -0.000001 10.125650 0.643247 1.334466 9.210899 3.190166 -0.903509 0.000000 0.000000 0.000000 9.351835 2.036269 -3.375821 -3.777684 1.027880 -0.351692 0.000000 0.000000 0.000000 9.351835 2.036269 -3.375821 0.932217 0.688371 -9.075187 -26.479335 3.102031 -58.698427 0.000007 -42.443000 0.000013 0.000000 0.000000 0.000000 9.351835 2.036269 -3.375821 5.756299 24.290982 1.165175 -24.886554 -18.127291 62.390151 0.000002 37.716697 -0.000011 0.000000 0.000000 0.000000 
2.369303 91.102104 11.571445 0.000000 0.000000 0.000000 25.336933 14.026834 2.353280 -41.441087 9.376356 11.821887 29.209946 7.108428 -5.129384 11.323207 27.872834 -23.491548 0.000000 0.000000 0.000000 25.336933 14.026834 2.353280 -59.744245 -12.154427 -13.325660 39.704873 4.072958 -5.699528 -5.748700 -11.651851 1.839181 0.000000 0.000000 0.000000 25.336933 14.026834 2.353280 0.000002 0.000000 0.000000 9.966439 1.455373 1.624314 9.162368 3.405353 -0.814593 0.000000 0.000000 0.000000 9.299431 2.332561 -3.026502 -3.848710 0.909028 -0.469269 0.000000 0.000000 0.000000 9.299431 2.332561 -3.026502 1.019369 0.567887 -8.904578 -24.750288 5.026886 -57.223103 0.000012 -42.830398 0.000022 0.000000 0.000000 0.000000 9.299431 2.332561 -3.026502 5.775039 24.190525 0.981699 -25.353326 -19.271678 60.878118 0.000005 38.352745 -0.000006 0.000000 0.000000 0.000000 
2.559697 91.615181 13.359848 0.000000 0.000000 0.000000 24.828597 14.843760 2.320118 -41.541528 9.330743 11.093610 26.977379 6.742081 -5.106938 12.061184 27.712292 -23.353110 0.000000 0.000000 0.000000 24.828597 14.843760 2.320118 -57.066087 -12.945289 -13.728816 39.238709 4.499943 -5.704808 -7.497972 -12.369245 2.048182 0.000000 0.000000 0.000000 24.828597 14.843760 2.320118 0.000000 0.000000 0.000001 10.057364 2.306394 1.955871 9.100973 3.625108 -0.668953 0.000000 0.000000 0.000000 9.229842 2.660008 -2.563398 -3.878120 0.806582 -0.585024 0.000000 0.000000 0.000000 9.229842 2.660008 -2.563398 1.120963 0.422149 -8.691324 -22.881928 6.478795 -55.810637 0.000002 -43.215010 -0.000000 0.000000 0.000000 0.000000 9.229842 2.660008 -2.563398 5.791603 24.066544 0.758851 -25.787232 -20.375593 59.503652 -0.000006 39.185430 0.000032 0.000000 0.000000 0.000000 
2.744677 92.013275 15.137208 0.000000 0.000000 0.000000 24.172734 15.632145 2.221193 -41.890421 9.205689 10.528136 25.509380 6.416839 -5.130861 12.381469 27.856255 -23.289338 0.000000 0.000000 0.000000 24.172734 15.632145 2.221193 -54.325306 -13.944833 -14.063510 38.842152 4.903338 -5.656990 -9.270693 -12.940995 2.164322 0.000000 0.000000 0.000000 24.172734 15.632145 2.221193 -0.000001 -0.000001 -0.000000 10.346406 3.156450 2.310849 9.029354 3.849007 -0.485219 0.000000 0.000000 0.000000 9.145097 3.011631 -2.019323 -3.899288 0.705372 -0.712452 0.000000 0.000000 0.000000 9.145097 3.011631 -2.019323 1.232424 0.255221 -8.438169 -20.756016 7.703443 -54.556218 0.000000 -43.647412 0.000007 0.000000 0.000000 0.000000 9.145097 3.011631 -2.019323 5.802505 23.921431 0.502432 -27.032839 -21.123811 57.266058 0.000006 40.313095 0.000002 0.000000 0.000000 0.000000 
2.922510 92.127998 16.889774 0.000000 0.000000 0.000000 23.491339 16.411853 2.108941 -42.562563 9.064704 10.045306 25.360335 5.883151 -5.196672 11.702059 28.439888 -23.308393 0.000000 0.000000 0.000000 23.491339 16.411853 2.108941 -52.066037 -14.928458 -14.477288 39.343198 5.372146 -5.525515 -11.471584 -13.521515 2.120085 0.000000 0.000000 0.000000 23.491339 16.411853 2.108941 -0.000001 0.000000 0.000000 10.700853 3.980402 2.690413 8.950457 4.076261 -0.284396 0.000000 0.000000 0.000000 9.047931 3.379751 -1.429444 -3.884362 0.575626 -0.837362 0.000000 0.000000 0.000000 9.047931 3.379751 -1.429444 1.349153 0.071119 -8.147917 -18.571920 8.707393 -53.553328 -0.000002 -44.106223 -0.000005 0.000000 0.000000 0.000000 9.047931 3.379751 -1.429444 5.804331 23.757696 0.218161 -28.988703 -21.428076 54.714272 0.000011 41.256863 -0.000023 0.000000 0.000000 0.000000 
3.113437 92.026199 18.618238 0.000000 0.000000 0.000000 22.787712 17.175991 1.971575 -43.168445 8.923202 9.667323 25.488767 4.525795 -5.260397 10.524186 29.453155 -23.942914 0.000000 0.000000 0.000000 22.787712 17.175991 1.971575 -50.079148 -15.909078 -14.915745 40.378962 5.680169 -5.375516 -13.950410 -13.904693 2.047234 0.000000 0.000000 0.000000 22.787712 17.175991 1.971575 -0.000001 0.000001 0.000000 10.954841 4.751451 3.093619 8.868394 4.305468 -0.097894 0.000000 0.000000 0.000000 8.942266 3.754666 -0.837422 -3.856836 0.435799 -0.947988 0.000000 0.000000 0.000000 8.942266 3.754666 -0.837422 1.466540 -0.126261 -7.823428 -16.447773 9.549540 -52.852407 0.000004 -44.647908 0.000000 0.000000 0.000000 0.000000 8.942266 3.754666 -0.837422 5.793713 23.577822 -0.088260 -31.526705 -20.921682 52.242590 -0.000003 42.178850 0.000014 0.000000 0.000000 0.000000 
